<svg width="500" height="500" viewBox="0 0 500 500" fill="none" xmlns="http://www.w3.org/2000/svg">
<circle cx="244" cy="258" r="168" fill="#30CFC7"/>
<path fill-rule="evenodd" clip-rule="evenodd" d="M189.947 217.097C203.23 227.238 209.567 244.885 204.525 261.856C198.006 283.799 174.934 296.302 152.991 289.783C148.387 288.415 144.199 286.319 140.514 283.656C145.419 288.646 151.636 292.506 158.84 294.646C181.311 301.322 204.876 288.732 211.473 266.525C217.327 246.82 207.855 226.165 189.947 217.097Z" fill="#7CDFDB"/>
<path fill-rule="evenodd" clip-rule="evenodd" d="M265.216 276.69C271.269 281.311 274.157 289.352 271.859 297.086C268.889 307.085 258.375 312.782 248.376 309.812C246.278 309.189 244.369 308.233 242.69 307.02C244.925 309.293 247.758 311.053 251.041 312.028C261.281 315.07 272.019 309.333 275.025 299.213C277.693 290.234 273.376 280.822 265.216 276.69Z" fill="#7CDFDB"/>
<path fill-rule="evenodd" clip-rule="evenodd" d="M210.751 357.006C217.095 360.993 220.653 368.668 219.108 376.538C217.11 386.713 207.339 393.362 197.283 391.387C195.172 390.973 193.217 390.212 191.464 389.174C193.858 391.207 196.791 392.674 200.092 393.322C210.391 395.344 220.378 388.635 222.4 378.337C224.194 369.2 219.114 360.307 210.751 357.006Z" fill="#7CDFDB"/>
<path fill-rule="evenodd" clip-rule="evenodd" d="M307.091 364.455C309.82 365.528 312.768 366.149 315.852 366.228C330.55 366.604 342.783 354.536 343.174 339.271C343.476 327.466 336.607 317.206 326.678 312.989C339.298 315.71 348.613 327.361 348.261 341.068C347.866 356.516 335.342 368.726 320.29 368.341C315.464 368.217 310.965 366.814 307.091 364.455Z" fill="#7CDFDB"/>
<path fill-rule="evenodd" clip-rule="evenodd" d="M242.415 116.787C251.908 124.036 256.438 136.649 252.834 148.779C248.175 164.462 231.684 173.399 216 168.74C212.709 167.762 209.716 166.263 207.082 164.361C210.588 167.927 215.031 170.686 220.18 172.216C236.242 176.987 253.085 167.988 257.8 152.116C261.984 138.032 255.214 123.269 242.415 116.787Z" fill="#7CDFDB"/>
<path fill-rule="evenodd" clip-rule="evenodd" d="M327.765 231.833C331.943 233.106 336.4 233.699 341.004 233.489C362.944 232.489 379.907 213.643 378.894 191.395C378.109 174.187 366.801 159.984 351.566 154.895C370.654 157.524 385.752 173.493 386.662 193.472C387.688 215.989 370.306 235.072 347.837 236.096C340.634 236.424 333.783 234.857 327.765 231.833Z" fill="#7CDFDB"/>
<path fill-rule="evenodd" clip-rule="evenodd" d="M330.712 159.45C310.431 170.173 302.683 195.307 313.406 215.587C318.332 224.904 326.3 231.576 335.441 235.027C322.993 233.469 311.394 226.313 304.623 214.62C293.127 194.767 299.902 169.354 319.755 157.858C330.984 151.356 343.992 150.699 355.255 154.948C347.089 153.925 338.539 155.312 330.712 159.45Z" fill="#28706D"/>
<path fill-rule="evenodd" clip-rule="evenodd" d="M155.137 218.216C133.939 229.478 125.343 254.934 135.936 275.073C140.803 284.325 148.873 290.845 158.231 294.099C145.413 292.827 133.604 285.906 126.888 274.308C115.487 254.618 123.085 228.904 143.859 216.874C155.61 210.07 169.059 209.101 180.59 213.107C172.181 212.272 163.319 213.869 155.137 218.216Z" fill="#28706D"/>
<path fill-rule="evenodd" clip-rule="evenodd" d="M218.416 118.623C203.968 126.263 198.447 144.168 206.087 158.617C209.596 165.255 215.273 170.008 221.785 172.467C212.917 171.357 204.653 166.258 199.829 157.928C191.639 143.784 196.466 125.679 210.61 117.489C218.61 112.856 227.878 112.388 235.902 115.415C230.084 114.686 223.993 115.675 218.416 118.623Z" fill="#28706D"/>
<path fill-rule="evenodd" clip-rule="evenodd" d="M195.095 356.346C185.541 361.397 181.891 373.237 186.943 382.79C189.263 387.179 193.016 390.322 197.322 391.948C191.459 391.214 185.995 387.843 182.805 382.334C177.39 372.983 180.581 361.011 189.933 355.596C195.223 352.533 201.351 352.224 206.656 354.225C202.809 353.743 198.782 354.397 195.095 356.346Z" fill="#28706D"/>
<path fill-rule="evenodd" clip-rule="evenodd" d="M248.622 275.562C238.844 280.728 235.141 292.898 240.35 302.744C242.744 307.267 246.602 310.513 251.021 312.2C245.008 311.426 239.395 307.94 236.107 302.262C230.525 292.621 233.758 280.314 243.328 274.773C248.74 271.639 255.022 271.34 260.467 273.417C256.522 272.909 252.395 273.568 248.622 275.562Z" fill="#28706D"/>
<path fill-rule="evenodd" clip-rule="evenodd" d="M314.468 315.786C300.07 321.686 293.181 338.14 299.081 352.538C301.792 359.153 306.73 364.182 312.672 367.115C304.373 365.242 297.015 359.646 293.216 351.306C286.766 337.146 293.016 320.438 307.176 313.988C315.185 310.339 324.01 310.754 331.332 314.366C325.888 313.136 320.025 313.509 314.468 315.786Z" fill="#28706D"/>
<path fill-rule="evenodd" clip-rule="evenodd" d="M352.372 328.369C369.011 299.121 376.788 265.096 373.824 230.781C385.663 214.555 388.644 192.587 379.724 173.005C371.612 155.196 355.549 143.517 337.652 140.258C321.636 120.207 301.43 104.407 278.881 93.6313C329.185 104.42 373.862 138.425 396.827 188.84C435.289 273.277 398.019 372.906 313.582 411.368C266.423 432.475 214.261 430.28 170.758 409.384C202.879 416.387 237.381 414.055 270.102 400.646C286.861 393.779 301.914 384.513 315.027 373.408C327.22 374.755 339.762 369.641 347.394 358.946C353.969 349.732 355.44 338.419 352.372 328.369Z" fill="#28706D"/>
<path fill-rule="evenodd" clip-rule="evenodd" d="M236.234 91.3457C163.141 99.1041 87.5421 168.908 89.0215 265.278C90.4101 318.117 110.865 361.734 143.065 392.169C103.451 362.826 77.5865 316.596 76.0214 259C74.5214 164.5 152.5 96.5 226.5 91C229.77 91 233.016 91.1164 236.234 91.3457Z" fill="#7CE0DB"/>
</svg>
